<?xml version="1.0" encoding="iso-8859-1"?>
<!-- Generator: Adobe Illustrator 16.0.0, SVG Export Plug-In . SVG Version: 6.00 Build 0)  -->
<!DOCTYPE svg PUBLIC "-//W3C//DTD SVG 1.1//EN" "http://www.w3.org/Graphics/SVG/1.1/DTD/svg11.dtd">
<svg version="1.1" id="Capa_1" xmlns="http://www.w3.org/2000/svg" xmlns:xlink="http://www.w3.org/1999/xlink" x="0px" y="0px"
	 width="612px" height="612px" viewBox="0 0 612 612" style="enable-background:new 0 0 612 612;" xml:space="preserve">
<g>
	<g id="_x33__5_">
		<g>
			<path d="M114.75,401.625V153H76.5C34.253,153,0,187.253,0,229.5v306C0,577.747,34.253,612,76.5,612h306
				c42.247,0,76.5-34.253,76.5-76.5v-38.25H210.375C168.128,497.25,114.75,443.872,114.75,401.625z M535.5,0h-306
				C187.253,0,153,34.253,153,76.5v306c0,42.247,34.253,76.5,76.5,76.5h306c42.247,0,76.5-34.253,76.5-76.5v-306
				C612,34.253,577.747,0,535.5,0z"/>
		</g>
	</g>
</g>
<g>
</g>
<g>
</g>
<g>
</g>
<g>
</g>
<g>
</g>
<g>
</g>
<g>
</g>
<g>
</g>
<g>
</g>
<g>
</g>
<g>
</g>
<g>
</g>
<g>
</g>
<g>
</g>
<g>
</g>
</svg>
