<?xml version="1.0" standalone="no"?> 
<!DOCTYPE svg PUBLIC "-//W3C//DTD SVG 1.1//EN" "http://www.w3.org/Graphics/SVG/1.1/DTD/svg11.dtd" >
<svg xmlns="http://www.w3.org/2000/svg">
<defs>
  <font id="icons" horiz-adv-x="612">
    <font-face font-family="icons"
      units-per-em="32" ascent="32"
      descent="0" />
    <missing-glyph horiz-adv-x="0" />
    <glyph glyph-name="align-to-left"
      unicode="&#xF101;"
      horiz-adv-x="31.999937454923572" d=" M1.1429487267191 17.1425421837223H28.5715916353778C28.88112721864 17.1425421837223 29.1488201457691 17.2558738622171 29.3751082323002 17.4820994036718C29.6011461385256 17.7080122197443 29.7141650916383 17.976080417332 29.7141650916383 18.2854909104413V20.571325818803C29.7141650916383 20.8810490372945 29.6011461385256 21.1486794193471 29.3751082323002 21.3748424157254C29.1488826908456 21.6010679571801 28.8811897637164 21.7140869102928 28.5715916353778 21.7140869102928H1.1429487267191C0.8332255082276 21.7140869102928 0.5654700360221 21.6010679571801 0.3391819494909 21.3748424157254C0.1131440432656 21.1487419644236 0 20.8808614020652 0 20.571325818803V18.2854909104413C0 17.976080417332 0.1131440432656 17.7080122197443 0.3392444945674 17.4820994036718C0.5656576712514 17.2558738622171 0.8334756885333 17.1425421837223 1.1429487267191 17.1425421837223z M1.1429487267191 23.9999218186545H21.713836729987C22.0233097681728 23.9999218186545 22.2915030559133 24.11306586192 22.5177911424445 24.3391663132218C22.7437665035934 24.5653918546765 22.8570356370118 24.8331473268821 22.8570356370118 25.1426829101442V27.4285178185059C22.8570356370118 27.7379908566916 22.7437665035934 28.0057463288972 22.5177911424445 28.2322220506576C22.2915656009898 28.4581348667301 22.0233723132492 28.571466545225 21.713836729987 28.571466545225H1.1429487267191C0.8332255082276 28.571466545225 0.5654700360221 28.4581348667301 0.3391819494909 28.2322220506576C0.1131440432656 28.0059965092029 0 27.7379908566916 0 27.4285178185059V25.1426829101442C0 24.8332098719585 0.1131440432656 24.5654543997529 0.3392444945674 24.3391663132218C0.5656576712514 24.11306586192 0.8334756885333 23.9999218186545 1.1429487267191 23.9999218186545z M31.6606929603562 7.6607711417017C31.4344674189015 7.8869966831564 31.1662741311609 8.0002032714984 30.8569887282045 8.0002032714984H1.1429487267191C0.8332255082276 8.0002032714984 0.5654700360221 7.8869966831564 0.3391819494909 7.6607711417017C0.1131440432656 7.4346706903999 0 7.1667275829651 0 6.8572545447793V4.5714821814941C0 4.2620091433084 0.1131440432656 3.9940660358735 0.3392444945674 3.7675277690367C0.5657202163278 3.541740043117 0.8336007786862 3.4284709096986 1.1430112717955 3.4284709096986H30.8570512732809C31.1662741311609 3.4284709096986 31.4344674189015 3.541740043117 31.6607555054326 3.7675277690367C31.886793411658 3.9940034907971 32.0000625450764 4.2619465982319 32.0000625450764 4.5714821814941V6.8572545447793C31.9999374549236 7.1667275829651 31.8867308665816 7.4346706903999 31.6606929603562 7.6607711417017z M1.1429487267191 10.2856629094015H23.9999843637309C24.3094574019166 10.2856629094015 24.5774630544279 10.3989320428199 24.8035009606533 10.6251575842746C25.029726502108 10.8511954905 25.1429956355264 11.1191385979348 25.1429956355264 11.428674181197V13.7141963641765C25.1429956355264 14.023481767133 25.029726502108 14.2916750548735 24.8035009606533 14.5177129610989C24.5775255995043 14.7439385025536 24.3095199469931 14.857207635972 23.9999843637309 14.857207635972H1.1429487267191C0.8332255082276 14.857207635972 0.5654700360221 14.7439385025536 0.3391819494909 14.5177129610989C0.1131440432656 14.2916750548735 0 14.023481767133 0 13.7141963641765V11.4284865459677C0 11.119013507782 0.1131440432656 10.8508202200414 0.3392444945674 10.6249699490453C0.5656576712514 10.3987444075906 0.8334756885333 10.2856629094015 1.1429487267191 10.2856629094015z" />
    <glyph glyph-name="align-to-right"
      unicode="&#xF102;"
      horiz-adv-x="31.999937454923572" d=" M30.8569887282045 8.000140726422H1.1429487267191C0.8332255082276 8.000140726422 0.5654700360221 7.88693413808 0.3391819494909 7.6607085966253C0.1131440432656 7.4346706903999 0 7.1667275829651 0 6.8572545447793V4.5714821814941C0 4.2620091433084 0.1131440432656 3.9940660358735 0.3392444945674 3.7675277690367C0.5657202163278 3.541740043117 0.8336007786862 3.4284709096986 1.1430112717955 3.4284709096986H30.8570512732809C31.1662741311609 3.4284709096986 31.4344674189015 3.541740043117 31.6607555054326 3.7675277690367C31.886793411658 3.9940034907971 32.0000625450764 4.2619465982319 32.0000625450764 4.5714821814941V6.8572545447793C32.0000625450764 7.1667275829651 31.886793411658 7.4346706903999 31.6607555054326 7.6607711417017C31.4344048738251 7.8869966831564 31.1662115860845 8.000140726422 30.8569887282045 8.000140726422z M30.8569887282045 14.8571450908956H8.000140726422C7.6904175079305 14.8571450908956 7.422662035725 14.7438759574772 7.1964364942703 14.5176504160225C6.9701484077392 14.2916750548735 6.8571919997029 14.023481767133 6.8571919997029 13.7141338191001V11.4284240008913C6.8571919997029 11.1189509627055 6.9702109528156 10.850757674965 7.1964364942703 10.6249074039689C7.4228496709543 10.3986818625142 7.6906051431598 10.28516254879 8.000140726422 10.28516254879H30.8569887282045C31.1662115860845 10.28516254879 31.4344048738251 10.3986193174378 31.6606929603562 10.6249074039689C31.8867308665816 10.8506951298885 32 11.1188884176291 32 11.4284240008913V13.7141338191001C32 14.0234192220565 31.8867308665816 14.2916125097971 31.6606929603562 14.5176504160225C31.4344048738251 14.7441261377829 31.1662115860845 14.8571450908956 30.8569887282045 14.8571450908956z M30.8569887282045 21.7140869102928H3.4287836350808C3.1190604165893 21.7140869102928 2.8511798542309 21.6010679571801 2.6250794029291 21.3748424157254C2.3988538614744 21.1487419644236 2.2858349083617 20.8808614020652 2.2858349083617 20.571325818803V18.2854909104413C2.2858349083617 17.976080417332 2.3988538614744 17.7080122197443 2.6250794029291 17.4820994036718C2.8514300345366 17.2558738622171 3.1190604165893 17.1425421837223 3.4287836350808 17.1425421837223H30.8569887282045C31.1662115860845 17.1425421837223 31.4344048738251 17.2558738622171 31.6606929603562 17.4820994036718C31.8867308665816 17.7080122197443 32 17.976080417332 32 18.2854909104413V20.571325818803C32 20.8810490372945 31.8867308665816 21.1486794193471 31.6606929603562 21.3748424157254C31.4344048738251 21.6010679571801 31.1662115860845 21.7140869102928 30.8569887282045 21.7140869102928z M31.6606929603562 28.2322220506576C31.4344674189015 28.4581348667301 31.1662741311609 28.571466545225 30.8569887282045 28.571466545225H10.2859756347837C9.9762524162922 28.571466545225 9.7083718539338 28.4581348667301 9.482271402632 28.2322220506576C9.2560458611773 28.0059965092029 9.1429018179117 27.7379908566916 9.1429018179117 27.4285178185059V25.1426829101442C9.1429018179117 24.8332098719585 9.2560458611773 24.5654543997529 9.482271402632 24.3391663132218C9.7086220342395 24.1130033168436 9.9764400515215 23.9999218186545 10.2859756347837 23.9999218186545H30.8569887282045C31.1662115860845 23.9999218186545 31.4344048738251 24.11306586192 31.6606929603562 24.3391663132218C31.8867308665816 24.5653918546765 32 24.8331473268821 32 25.1426829101442V27.4285178185059C31.9999374549236 27.7379908566916 31.8867308665816 28.0058088739736 31.6606929603562 28.2322220506576z" />
    <glyph glyph-name="block"
      unicode="&#xF103;"
      horiz-adv-x="32" d=" M0 24H8V32H0V24zM12 0H20V8H12V0zM0 0H8V8H0V0zM0 12H8V20H0V12zM12 12H20V20H12V12zM24 32V24H32V32H24zM12 24H20V32H12V24zM24 12H32V20H24V12zM24 0H32V8H24V0z" />
    <glyph glyph-name="body"
      unicode="&#xF104;"
      horiz-adv-x="32" d=" M0 32V0H32V32H0zM27.0344827586207 6.0689655172414H4.9655172413793V8.2758620689655H27.0344827586207V6.0689655172414zM27.0344827586207 14.8965517241379H4.9655172413793V17.1034482758621H27.0344827586207V14.8965517241379zM27.0344827586207 23.7241379310345H4.9655172413793V25.9310344827586H27.0344827586207V23.7241379310345z" />
    <glyph glyph-name="button"
      unicode="&#xF105;"
      horiz-adv-x="32" d=" M25.4375 27.25H6.5625C2.9443125 27.25 0 24.3056875 0 20.6875V11.3125C0 7.6943125 2.9443125 4.75 6.5625 4.75H25.4375C29.0556875 4.75 32 7.6943125 32 11.3125V20.6875C32 24.3056875 29.0556875 27.25 25.4375 27.25z" />
    <glyph glyph-name="center-text-alignment"
      unicode="&#xF106;"
      horiz-adv-x="31.999937454923572" d=" M31.9999374549236 6.8572545447793V4.5714821814941C31.9999374549236 4.2620091433084 31.8866683215052 3.9940660358735 31.6606304152798 3.7675277690367C31.4344048738251 3.541740043117 31.1662115860845 3.4284709096986 30.8569261831281 3.4284709096986H1.1429487267191C0.8335382336098 3.4284709096986 0.5656576712514 3.541740043117 0.3391819494909 3.7675277690367C0.1131440432656 3.9940660358735 0 4.2620091433084 0 4.5714821814941V6.8572545447793C0 7.1667275829651 0.1131440432656 7.4346706903999 0.3392444945674 7.6607711417017C0.5655325810985 7.8869966831564 0.8332255082276 8.0002032714984 1.1430112717955 8.0002032714984H30.8570512732809C31.1662741311609 8.0002032714984 31.4344674189015 7.8869966831564 31.6607555054326 7.6607711417017C31.8867308665816 7.4346706903999 31.9999374549236 7.1667275829651 31.9999374549236 6.8572545447793zM8.000140726422 14.8571450908956C7.6904175079305 14.8571450908956 7.422662035725 14.7438759574772 7.1964364942703 14.5176504160225C6.9701484077392 14.2916750548735 6.8571919997029 14.023481767133 6.8571919997029 13.7141338191001V11.4284240008913C6.8571919997029 11.1189509627055 6.9702109528156 10.850757674965 7.1964364942703 10.6249074039689C7.4228496709543 10.3986818625142 7.6906051431598 10.28516254879 8.000140726422 10.28516254879H23.9999843637309C24.3094574019166 10.28516254879 24.5774630544279 10.3986193174378 24.8035009606533 10.6249074039689C25.029726502108 10.8506951298885 25.1429956355264 11.1188884176291 25.1429956355264 11.4284240008913V13.7141338191001C25.1429956355264 14.0234192220565 25.029726502108 14.2916125097971 24.8035009606533 14.5176504160225C24.5775255995043 14.7438759574772 24.309519946993 14.8571450908956 23.9999843637309 14.8571450908956H8.000140726422zM3.4287836350808 17.1425421837223H28.5712163649193C28.8807519481814 17.1425421837223 29.1486950556163 17.2558738622171 29.3747955069181 17.4820994036718C29.600770868067 17.7080122197443 29.7137898211797 17.976080417332 29.7137898211797 18.2854909104413V20.571325818803C29.7137898211797 20.8810490372945 29.600770868067 21.1486794193471 29.3747955069181 21.3748424157254C29.1487576006927 21.6010679571801 28.8808144932578 21.7140869102928 28.5712163649193 21.7140869102928H3.4287836350808C3.1190604165893 21.7140869102928 2.8511798542309 21.6010679571801 2.6250794029291 21.3748424157254C2.3988538614744 21.1487419644236 2.2858349083617 20.8808614020652 2.2858349083617 20.571325818803V18.2854909104413C2.2858349083617 17.976080417332 2.3988538614744 17.7080122197443 2.6250794029291 17.4820994036718C2.8514300345366 17.2558738622171 3.1190604165893 17.1425421837223 3.4287836350808 17.1425421837223zM10.2859756347837 23.9999218186545H21.713836729987C22.0233097681728 23.9999218186545 22.2915030559133 24.11306586192 22.5177911424445 24.3391663132218C22.7437665035934 24.5653918546765 22.8570356370118 24.8331473268821 22.8570356370118 25.1426829101442V27.4285178185059C22.8570356370118 27.7379908566916 22.7437665035934 28.0057463288972 22.5182289579795 28.2322220506576C22.2918157812955 28.4581348667301 22.0238101287842 28.571466545225 21.7142745455221 28.571466545225H10.2859756347837C9.9762524162922 28.571466545225 9.7083718539338 28.4581348667301 9.482271402632 28.2322220506576C9.2560458611773 28.0059965092029 9.1429018179117 27.7379908566916 9.1429018179117 27.4285178185059V25.1426829101442C9.1429018179117 24.8332098719585 9.2560458611773 24.5654543997529 9.482271402632 24.3391663132218C9.7086220342395 24.11306586192 9.9764400515215 23.9999218186545 10.2859756347837 23.9999218186545z" />
    <glyph glyph-name="copy"
      unicode="&#xF107;"
      horiz-adv-x="32" d=" M6 11V24H4C1.7910065359477 24 0 22.2089934640523 0 20V4C0 1.7910065359477 1.7910065359477 0 4 0H20C22.2089934640523 0 24 1.7910065359477 24 4V6H11C8.7910065359477 6 6 8.7910065359477 6 11zM28 32H12C9.7910065359477 32 8 30.2089934640523 8 28V12C8 9.7910065359477 9.7910065359477 8 12 8H28C30.2089934640523 8 32 9.7910065359477 32 12V28C32 30.2089934640523 30.2089934640523 32 28 32z" />
    <glyph glyph-name="divider"
      unicode="&#xF108;"
      horiz-adv-x="32" d=" M0 16.7619047619048H32V15.2380952380952H0V16.7619047619048z" />
    <glyph glyph-name="down"
      unicode="&#xF109;"
      horiz-adv-x="32" d=" M15.9999645897837 6.8795676412591C15.4264607267504 6.8795676412591 14.8530276841497 7.0985444187966 14.4157823334005 7.5355773082481L0.6565054100171 21.2949958724967C-0.2187643162398 22.1702655987536 -0.2187643162398 23.5893654267927 0.6565054100171 24.4642810508867C1.5314210341111 25.3391966749807 2.9502375804199 25.3391966749807 3.8255781271094 24.4642810508867L15.9999645897837 12.2891863838866L28.1744218728906 24.4638561282912C29.0496915991475 25.3387717523852 30.4683665045912 25.3387717523852 31.3432113082526 24.4638561282912C32.218905957105 23.5889405041972 32.218905957105 22.1698406761581 31.3432113082526 21.2945709499012L17.584146846167 7.5351523856527C17.14668903412 7.0980486757686 16.5732559915193 6.8795676412591 15.9999645897837 6.8795676412591z" />
    <glyph glyph-name="drag-handler"
      unicode="&#xF10A;"
      horiz-adv-x="32" d=" M0 5.3333333333333H32V8.8888888888889H0V5.3333333333333zM0 14.2222222222222H32V17.7777777777778H0V14.2222222222222zM0 26.6666666666667V23.1111111111111H32V26.6666666666667H0z" />
    <glyph glyph-name="email"
      unicode="&#xF10B;"
      horiz-adv-x="32" d=" M16.7375 13.674C16.347 13.2835 15.7145 13.2835 15.3235 13.674L14.5335 14.464L11.4925 11.5H20.5435L17.5035 14.4395L16.7375 13.674zM22.103 20.5H9.9455L16 14.5L22.103 20.5zM9 19.997V11.5H10.0305L13.7945 15.2025L9 19.997zM22.0305 11.5H23V19.936L18.266 15.2025L22.0305 11.5zM16 32C7.1635 32 0 24.8365 0 16S7.1635 0 16 0S32 7.1635 32 16S24.8365 32 16 32zM24 11.5C24 10.948 23.552 10.5 23 10.5H9C8.448 10.5 8 10.948 8 11.5V20.5C8 21.052 8.448 21.5 9 21.5H23C23.552 21.5 24 21.052 24 20.5V11.5z" />
    <glyph glyph-name="export"
      unicode="&#xF10C;"
      horiz-adv-x="32" d=" M25.036899114835 20.9592883214375H20.2551757769207V18.1220315940359H25.036899114835C26.4588376113845 18.1220315940359 27.5620576022225 17.395693871821 27.5620576022225 16.7705516395502V4.1892095580086C27.5620576022225 3.5640673257378 26.4588376113845 2.8377296035229 25.036899114835 2.8377296035229H6.9626280090438C5.5406895124943 2.8377296035229 4.4374695216562 3.5640673257378 4.4374695216562 4.1892095580086V16.7700787634289C4.4374695216562 17.3952209956998 5.5406895124943 18.1215587179146 6.9626280090438 18.1215587179146H11.7434055947156V20.9588154453163H6.9626280090438C3.9556087541192 20.9588154453163 1.6002127942546 19.1188544575963 1.6002127942546 16.7700787634289V4.1887366818874C1.6002127942546 1.8394881115988 3.9556087541192 0 6.9626280090438 0H25.0373719909562C28.0439183697596 0 30.3997872057455 1.83996098772 30.3997872057455 4.1887366818874V16.7700787634289C30.3993143296242 19.1193273337175 28.0439183697596 20.9592883214375 25.036899114835 20.9592883214375z M11.8015693576273 24.9281376069513C12.1647382187348 24.9281376069513 12.5274342037209 25.0666903104727 12.8045396107638 25.3437957175156L14.5806623221173 27.1199184288691V20.9592883214375V18.1220315940359V12.6867934565767C14.5806623221173 11.9032377236926 15.215734952934 11.2681650928758 15.9992906858182 11.2681650928758S17.417919049519 11.9032377236926 17.417919049519 12.6867934565767V18.1220315940359V20.9592883214375V27.2159122814795L19.2900356134829 25.3437957175156C19.5671410205258 25.0666903104727 19.9303098816332 24.9281376069513 20.2930058666194 24.9281376069513S21.018870712713 25.0666903104727 21.2959761197559 25.3437957175156C21.8501869338417 25.8975336554802 21.8501869338417 26.7959982858241 21.2959761197559 27.3497362237886L17.0604247018664 31.5852876416781C16.7833192948235 31.862393048721 16.4206233098373 32 16.0579273248511 32C16.0541443158812 32 16.0508341830326 32 16.0470511740627 32S16.0399580322442 32 16.0361750232744 32C15.6734790382882 32 15.310783053302 31.862393048721 15.0336776462591 31.5852876416781L10.7981262283696 27.3497362237886C10.2439154142838 26.7959982858241 10.2439154142838 25.8975336554802 10.7981262283696 25.3437957175156C11.0757045115337 25.0666903104727 11.4384004965199 24.9281376069513 11.8015693576273 24.9281376069513z" />
    <glyph glyph-name="facebook"
      unicode="&#xF10D;"
      horiz-adv-x="32" d=" M18.579834 0.2082519375C18.4465331875 0.1865234375 18.312744125 0.166503875 18.1784668125 0.148193375C18.312744125 0.166503875 18.4465331875 0.1865234375 18.579834 0.2082519375zM18.579834 0.2082519375 M18.899902375 0.2629394375C18.836181625 0.2512206875 18.7724609375 0.2404785 18.70874025 0.2294921875C18.7724609375 0.2404785 18.836181625 0.2512206875 18.899902375 0.2629394375zM18.899902375 0.2629394375 M17.8210449375 0.10375975C17.6650390625 0.086181625 17.508056625 0.070556625 17.3505859375 0.0573730625C17.508056625 0.070556625 17.6650390625 0.086181625 17.8210449375 0.10375975zM17.8210449375 0.10375975 M18.128418 0.1413574375C18.0534668125 0.131347625 17.978027375 0.1220703125 17.902832 0.11328125C17.978027375 0.1220703125 18.0534668125 0.131347625 18.128418 0.1413574375zM18.128418 0.1413574375 M19.33544925 0.34936525C19.279296875 0.337402375 19.222900375 0.3254394375 19.166503875 0.313964875C19.222900375 0.3254394375 19.279296875 0.337402375 19.33544925 0.34936525zM19.33544925 0.34936525 M20.416503875 0.6179199375C20.37109375 0.6049805 20.325683625 0.5927734375 20.2802734375 0.580078125C20.325683625 0.5927734375 20.37109375 0.6049805 20.416503875 0.6179199375zM20.416503875 0.6179199375 M20.089599625 0.5285644375C20.0402831875 0.515625 19.990722625 0.502441375 19.941162125 0.48999025C19.990722625 0.502441375 20.0402831875 0.515380875 20.089599625 0.5285644375zM20.089599625 0.5285644375 M19.66186525 0.421630875C19.609619125 0.4094238125 19.55688475 0.39794925 19.504150375 0.3862305C19.55688475 0.39794925 19.609619125 0.4094238125 19.66186525 0.421630875zM19.66186525 0.421630875 M17.345459 0.05688475C17.2612305 0.0498046875 17.1770019375 0.043457 17.0925293125 0.0378418125C17.1770019375 0.043457 17.2612305 0.0498046875 17.345459 0.05688475zM17.345459 0.05688475 M32 16C32 24.8352050625 24.8352050625 32 16 32S0 24.8352050625 0 16S7.1647949375 0 16 0C16.093994125 0 16.1875 0.001953125 16.28125 0.003662125V12.458984375H12.84375V16.465087875H16.28125V19.4130859375C16.28125 22.83203125 18.3684081875 24.692871125 21.418212875 24.692871125C22.878662125 24.692871125 24.1340331875 24.583984375 24.5 24.535400375V20.9621581875H22.396972625C20.737793 20.9621581875 20.416503875 20.173584 20.416503875 19.0166015625V16.465087875H24.3837890625L23.86669925 12.458984375H20.416503875V0.6181640625C27.1042480625 2.535400375 32 8.696777375 32 16zM32 16 M17.057128875 0.0356445C16.890625 0.024902375 16.7233886875 0.0163574375 16.5556640625 0.0107421875C16.7233886875 0.0163574375 16.890625 0.024902375 17.057128875 0.0356445zM17.057128875 0.0356445 M16.547119125 0.010253875C16.45874025 0.00732425 16.3701171875 0.0051269375 16.281494125 0.003662125C16.3701171875 0.0051269375 16.45874025 0.00732425 16.547119125 0.010253875zM16.547119125 0.010253875" />
    <glyph glyph-name="google-plus"
      unicode="&#xF10E;"
      horiz-adv-x="32" d=" M13.856440828164 13.3485861596713C13.7526786433578 13.4175461210022 13.6463385160719 13.4923064529123 13.5348425038266 13.5677112704423C13.2106662370096 13.6669620559091 12.8665109159752 13.7185209055023 12.5139772818819 13.7230323048417H12.4714412309675C10.8512043825022 13.7230323048417 9.4307580762104 12.7427696769516 9.4307580762104 11.6239426407798C9.4307580762104 10.4058648191412 10.6481914122291 9.4539595585273 12.2014017562233 9.4539595585273C14.2502215419318 9.4539595585273 15.2884878756143 10.1616047691936 15.2884878756143 11.5536937082091C15.2884878756143 11.6851687746717 15.2730202207363 11.8217997260936 15.2401514541207 11.9590751631354C15.101587045839 12.4991541126239 14.6059776041247 12.8362200918392 13.856440828164 13.3485861596713z M12.7086119390961 17.5944574236687C12.7099009103359 17.5944574236687 12.7099009103359 17.5944574236687 12.7099009103359 17.5944574236687C13.0972367679046 17.5944574236687 13.4239909772013 17.7472005155885 13.6772738258278 18.0372190445501C14.0742769676952 18.4896479497301 14.2502215419318 19.2320953838717 14.1458148715057 20.0203012970273C13.96213646983 21.4291468621606 12.9548054459035 22.6021106904052 11.9036493998228 22.6324015145412L11.8617578345283 22.633690485781C11.4898896318376 22.633690485781 11.1579795375816 22.4803029082414 10.905985660195 22.1915733505196C10.5147828889068 21.7449448159188 10.3491500845887 21.0372996052526 10.4516232981552 20.2503826633368C10.6359461854507 18.8428260694433 11.6645452348344 17.6266817046645 12.6937887698381 17.5944574236687H12.7086119390961L12.7086119390961 17.5944574236687z M16 32C7.177636348989 32 0 24.822363651011 0 16C0 7.1782808346089 7.177636348989 0 16 0C24.8217191653911 0 32 7.1782808346089 32 16C32 24.822363651011 24.823008136631 32 16 32zM14.1554821558044 8.2088133408523C13.5509546443245 8.0341577378555 12.8968017401112 7.9458632079272 12.2104245549021 7.9458632079272C11.4460646096834 7.9458632079272 10.7113510029807 8.0335132522356 10.0262627890115 8.2068798839926C8.7005558688472 8.5413679207283 7.720937726577 9.1755417707242 7.2633529364376 9.992749536776C7.0661403367437 10.3459276564892 6.966245065657 10.7223072585193 6.966245065657 11.1122210585676C6.966245065657 11.5137355997744 7.0622734230242 11.9210505115605 7.2517521952791 12.324498509627C7.9780874889229 13.8725529686619 9.8928542656892 14.9140417304439 12.0138564408282 14.9140417304439C12.0351244662853 14.9140417304439 12.0551035205027 14.9140417304439 12.0744380891001 14.9140417304439C11.9023604285829 15.2175944574237 11.819221783614 15.532103439942 11.819221783614 15.8627245629582C11.819221783614 16.0270683960364 11.841134294691 16.1946346572142 11.8849593168452 16.3654233464916C9.6601949569 16.4156932248449 7.9954886006606 18.0449528719891 7.9954886006606 20.1930234431644C7.9954886006606 21.7094981068235 9.20776605172 23.1873036332877 10.9414323692903 23.7840973173286C11.4602432933215 23.9632643196649 11.9893659872714 24.0547812776927 12.5094658825425 24.0547812776927H17.2670587287521C17.4288246193507 24.0547812776927 17.5725449125916 23.9497301216467 17.622814790945 23.7956980584871C17.6730846692983 23.6423104809474 17.6176589059857 23.4734552485298 17.486828325143 23.3787158624023L16.422782566664 22.6085555466044C16.3589784902924 22.5634415532103 16.2822847015226 22.5389510996536 16.2030129702731 22.5389510996536H15.8221219689036C16.3138644968984 21.9492467574317 16.6019495690002 21.1081930234432 16.6019495690002 20.1640215902683C16.6019495690002 19.1218883428664 16.0747603319101 18.1364698300169 15.1151212438572 17.3856440828164C14.3739627809555 16.8081849673729 14.3449609280593 16.648997019254 14.3449609280593 16.3196648674776C14.3539837267381 16.1385644082816 14.8702167082897 15.54757109482 15.4399419962942 15.1447675823733C16.7669378876984 14.2063965197777 17.260613872553 13.2854265689197 17.260613872553 11.7489728510433C17.2599693869331 10.143559171836 16.0412470796745 8.7566261177798 14.1554821558044 8.2088133408523zM24.8997019254008 16.3692902602111C24.8997019254008 16.1630548618384 24.7314911786031 15.9954886006606 24.5259002658503 15.9954886006606H21.8222830903085V13.290582453879C21.8222830903085 13.0843470555063 21.6540723435108 12.9167807943285 21.4497704019979 12.9167807943285H20.6796100861999C20.4720857165874 12.9167807943285 20.3045194554096 13.0843470555063 20.3045194554096 13.290582453879V15.9954886006606H17.6028357367276C17.3966003383549 15.9954886006606 17.2290340771772 16.1617658905986 17.2290340771772 16.3692902602111V17.1381616047692C17.2290340771772 17.3443970031419 17.3966003383549 17.5132522355595 17.6028357367276 17.5132522355595H20.3045194554096V20.2155804398614C20.3045194554096 20.422460323854 20.4720857165874 20.5893820994119 20.6796100861999 20.5893820994119H21.4497704019979C21.6540723435108 20.5893820994119 21.8222830903085 20.422460323854 21.8222830903085 20.2155804398614V17.5132522355595H24.5252557802304C24.7308466929832 17.5132522355595 24.8990574397809 17.3456859743817 24.8990574397809 17.139450576009V16.3692902602111z" />
    <glyph glyph-name="html"
      unicode="&#xF10F;"
      horiz-adv-x="32" d=" M9.7923702513011 9.1950408224977L0 14.5354829468591V17.4933554024159L9.7923702513011 22.8035586395684V19.3293333121131L2.9688857765824 16.051501599478L9.7923702513011 12.6500405837697C9.7923702513011 12.6500405837697 9.7923702513011 9.1950408224977 9.7923702513011 9.1950408224977z M11.4649308484395 7.326086610539L17.9589069438034 24.673913389461H20.0105040345042L13.5014403259434 7.326086610539H11.4649308484395z M22.2076297486989 9.1950408224977V12.6500405837697L29.0297773462989 16.0240001273216L22.2076297486989 19.3719223974663V22.8049591775023L32 17.4878805723107V14.5478331450034L22.2076297486989 9.1950408224977z" />
    <glyph glyph-name="image"
      unicode="&#xF110;"
      horiz-adv-x="32" d=" M31.2162517147777 28.0165786170865C30.6940836519658 28.5387466798984 30.0666063454073 28.7998015235983 29.3330025393304 28.7998015235983H2.6666472081959C1.9333352791804 28.7998015235983 1.3057412217974 28.5388050553107 0.7832229065118 28.0165786170865C0.2609964682876 27.49429380345 0 26.866699746067 0 26.1333294416392V5.8669624354222C0 5.1334170047576 0.2609964682876 4.5057645719623 0.7832229065118 3.9835381337381C1.3057412217974 3.4613116955138 1.9333352791804 3.2001984764017 2.6666472081959 3.2001984764017H29.3334111672164C30.0666063454073 3.2001984764017 30.6942587782026 3.4613116955139 31.2164852164268 3.9835381337381C31.7386532792388 4.50570619655 32 5.1333586293453 32 5.8669624354222V26.1333294416392C32 26.866699746067 31.7386532792388 27.49429380345 31.2162517147777 28.0165786170865zM29.8662035550626 5.8669624354222C29.8662035550626 5.7223081638014 29.8137240594262 5.5976766585914 29.7081813140305 5.4917836607221C29.6025218178103 5.3867079186247 29.4774816847144 5.3339949213391 29.3330025393304 5.3339949213391H2.6666472081959C2.5222848136365 5.3339949213391 2.3972446805406 5.3867079186247 2.2917019351449 5.4917836607221C2.1862175651616 5.5976182831791 2.1333878170515 5.7223081638014 2.1333878170515 5.8669624354222V26.1335629432883C2.1333878170515 26.27798371326 2.1860424389247 26.4027319692945 2.2917019351449 26.5085082163393C2.3973030559528 26.6137590846735 2.5223431890488 26.6665888327836 2.6666472081959 26.6665888327836H29.3334111672164C29.4776568109512 26.6665888327836 29.6026969440472 26.6137590846735 29.7081813140305 26.5085082163393C29.8133154315402 26.4027319692945 29.8662035550626 26.27798371326 29.8662035550626 26.1335629432883V5.8669624354222L29.8662035550626 5.8669624354222z M7.4667989842678 18.1334461924637C8.3557981378243 18.1334461924637 9.1112927235049 18.4444120136599 9.7335746183707 19.0666939085257C10.3556813869998 19.6889758033916 10.6668223344327 20.4444120136599 10.6668223344327 21.3331776655673C10.6668223344327 22.2222351945361 10.355506260763 22.9776714048043 9.7335746183707 23.6000116750825C9.1112927235049 24.2220600682992 8.3557397624121 24.5332010157322 7.4667989842678 24.5332010157322C6.5779165815359 24.5332010157322 5.8224803712676 24.2220600682992 5.2001984764017 23.6000116750825C4.578150083185 22.9777297802166 4.267009135752 22.2222935699483 4.267009135752 21.3331776655673C4.267009135752 20.4444120136599 4.5779749569481 19.6888006771548 5.2001984764017 19.0666939085257C5.8224803712676 18.4445871398967 6.5779165815359 18.1334461924637 7.4667989842678 18.1334461924637z M12.2666588832784 13.3335862934532L9.5999532996702 16L4.2667756341029 10.666880709845L4.2667756341029 7.4667406088556L27.7332827413094 7.4667406088556L27.7332827413094 14.9333644668865L20.8000350252474 21.8667873091854z" />
    <glyph glyph-name="import"
      unicode="&#xF111;"
      horiz-adv-x="32" d=" M26.040621972645 23.3493916555835H20.7280429535491V20.1968375942072H26.040621972645C27.6211024087483 20.1968375942072 28.8469205129468 19.3903091801717 28.8469205129468 18.6956964353152V4.715695450142C28.8469205129468 4.0216081309624 27.6211024087483 3.2140288655731 26.040621972645 3.2140288655731H5.9583271760012C4.3783721655748 3.2140288655731 3.1525540613763 4.0216081309624 3.1525540613763 4.715695450142V18.6941201582845C3.1525540613763 19.3887329031411 4.3783721655748 20.1957867428534 5.9583271760012 20.1957867428534H11.2703807694202V23.3483408042297H5.9583271760012C2.6171452966192 23.3483408042297 0 21.3039094954272 0 18.6941201582845V4.7151700244651C0 2.1048552616456 2.6171452966192 0.0614748041968 5.9583271760012 0.0614748041968H26.0416728239988C29.381803852027 0.0614748041968 32 2.1059061129994 32 4.7151700244651V18.6941201582845C31.9994745743231 21.3049603467809 29.3823292777039 23.3493916555835 26.040621972645 23.3493916555835z M20.7695515820239 16.760553667307C20.3660246621677 16.760553667307 19.9630231679884 16.6060785182996 19.6551237213274 16.2981790716385L17.6816248789058 14.3252056548938V21.1699259478187V24.322480009195V30.362248165115C17.6816248789058 31.2323530860549 16.9759781948344 31.9385251958032 16.1053478482177 31.9385251958032S14.5290708175295 31.2323530860549 14.5290708175295 30.362248165115V24.3230054348718V21.1704513734956V14.2190696681608L12.4489105626981 16.2987044973154C12.141011116037 16.6066039439765 11.7374841961808 16.7610790929839 11.3344827020015 16.7610790929839S10.5279542879661 16.6066039439765 10.220054841305 16.2987044973154C9.6042559479829 15.683956455347 9.6042559479829 14.6856476692445 10.220054841305 14.0703742015993L14.9262926292629 9.3641364136414C15.234192075924 9.0562369669803 15.6377189957802 8.9033380950035 16.0401950642826 8.9033380950035C16.0443984696977 8.9033380950035 16.0486018751129 8.9033380950035 16.0522798548512 8.9033380950035S16.0601612400046 8.9033380950035 16.0638392197429 8.9033380950035C16.467366139599 8.9033380950035 16.8698422081014 9.0562369669803 17.1777416547625 9.3641364136414L21.8839794427204 14.0703742015993C22.4997783360426 14.6856476692445 22.4997783360426 15.683956455347 21.8839794427204 16.2987044973154C21.5760799960593 16.6060785182996 21.1736039275569 16.760553667307 20.7695515820239 16.760553667307z" />
    <glyph glyph-name="linkedin"
      unicode="&#xF112;"
      horiz-adv-x="32" d=" M16 32C7.163999407885 32 0 24.836000592115 0 16S7.163999407885 0 16 0S32 7.163999407885 32 16C32 24.837974308788 24.836000592115 32 16 32zM12 8.2500041119097H8V22.2500370071876H12V8.2500041119097zM10.1239823023405 23.1080116449284C9.0879784206977 23.1080116449284 8.2500041119097 23.9480254609451 8.2500041119097 24.9840293425879S9.0900179279264 26.8600470402474 10.1239823023405 26.8600470402474C11.1599861839833 26.8580733235744 12 26.0180595075577 12 24.9840293425879C12 23.9480254609451 11.1599861839833 23.1080116449284 10.1239823023405 23.1080116449284zM25.9999671047221 8.2500041119097H21.9999671047221V16.9060017434497C21.9999671047221 17.9200315794668 21.7099623349068 18.6299774667347 20.4639549992599 18.6299774667347C18.397934176549 18.6299774667347 17.9999671047221 16.9060017434497 17.9999671047221 16.9060017434497V8.2500041119097H13.9999671047221V22.2500370071876H17.9999671047221V20.9120544745802C18.5719501965493 21.3500222043126 19.9999342094442 22.2480632905146 21.9999671047221 22.2480632905146C23.295975262751 22.2480632905146 25.9999671047221 21.472063685258 25.9999671047221 16.7840918436158V8.2500041119097z" />
    <glyph glyph-name="menu"
      unicode="&#xF113;"
      horiz-adv-x="32" d=" M0 30.72H32V28.16H0V30.72z M0 21.76H32V19.2H0V21.76z M0 12.8H32V10.24H0V12.8z M0 3.84H32V1.28H0V3.84z" />
    <glyph glyph-name="move"
      unicode="&#xF114;"
      horiz-adv-x="32" d=" M31.6605645530133 16.8033993581249L27.0891002411918 21.3748011242587C26.8630601259514 21.6010288765622 26.5951143999719 21.7140489341824 26.2855132460039 21.7140489341824C25.9760371834113 21.7140489341824 25.7082790944948 21.6010288765622 25.4819887965037 21.3748011242587C25.2560112269509 21.14844828058 25.14274098658 20.8805651002881 25.14274098658 20.5710890376955V18.2852317904094H18.2855445188478V25.1424282581417H20.5715268575092C20.8810029201018 25.1424282581417 21.1489486460813 25.2555734071372 21.3750513070094 25.4816760680653C21.6010914222498 25.7079038203688 21.7141114798701 25.97553681791 21.7141114798701 26.2852005175656C21.7141114798701 26.5949267629088 21.6010914222498 26.8628099432007 21.3750513070094 27.0889751498165L16.8035244495002 31.660439461638C16.5775468799475 31.8866046682538 16.3097262453433 31.9996872715617 16 31.9996872715617C15.6902737546567 31.9996872715617 15.4225782114279 31.8865421225661 15.1962879134368 31.660439461638L10.6249486929906 27.0889751498165C10.3986583949995 26.8626223061377 10.2857008830669 26.5947391258458 10.2857008830669 26.2852005175656C10.2857008830669 25.9758495463483 10.3987209406871 25.7079663660565 10.6249486929906 25.4816760680653C10.8513015366694 25.2555734071372 11.1189345342105 25.1424282581417 11.4286607795538 25.1424282581417H13.7143929354646V18.2851692447217H6.85725901342V20.5710264920078C6.85725901342 20.8807527373511 6.7441138644244 21.1485733719553 6.517886112121 21.3747385785711C6.2915332684422 21.6009663308745 6.0236500881503 21.7139863884947 5.7141740255577 21.7139863884947C5.4047605086528 21.7139863884947 5.136877328361 21.6009663308745 4.9106495760575 21.3747385785711L0.3392478099237 16.8033993581249C0.1131451489956 16.5771716058214 0 16.3094135169049 0 15.9998749086247S0.1131451489956 15.4223905743649 0.3392478099237 15.1963504591244L4.9106495760575 10.6250737843659C5.136877328361 10.3990962148132 5.4045728715898 10.2853881546286 5.7141740255577 10.2853881546286C6.023900270901 10.2853881546286 6.2917209055052 10.3990336691255 6.517886112121 10.6250737843659C6.7441138644244 10.8508637168557 6.85725901342 11.1190596255859 6.85725901342 11.4285982338661V13.7145805725276H13.7143929354646V6.8573215591076H11.4288484166168C11.1191221712735 6.8573215591076 10.8512389909817 6.7440513187367 10.6250737843659 6.518073749184C10.3988460320625 6.2918459968805 10.2858259744423 6.024087907964 10.2858259744423 5.7145492996838S10.3988460320625 5.137064965424 10.6250737843659 4.9105870303698L15.1964755504998 0.3394979926743C15.4229534855539 0.1134578774339 15.6907115744704 0.0002501827507 16.0002501827507 0.0002501827507C16.3097262453433 0.0002501827507 16.5779221540735 0.1134578774339 16.8037746322509 0.3394979926743L21.3750513070094 4.9105870303698C21.6015292420635 5.1370024197363 21.7145492996838 5.4050106914035 21.7145492996838 5.7145492996838S21.6015292420635 6.2917834511929 21.3750513070094 6.518073749184C21.149011191769 6.7440513187367 20.8810654657895 6.8573215591076 20.5715268575092 6.8573215591076H18.2859823386614V13.7143929354646H25.1430537150184V11.4281604140525C25.1430537150184 11.1186843514599 25.2560737726386 10.8507386254803 25.4820513421914 10.6246359645522C25.7085292772455 10.3986583949995 25.976475003225 10.2851379718779 26.2860136115053 10.2851379718779C26.5952394913472 10.2851379718779 26.8630601259514 10.3985958493118 27.0895380610055 10.6246359645522L31.660814735764 15.1961628220614C31.8870424880675 15.4223905743649 32.0000625456877 15.6903363003444 32.0000625456877 15.9998749086247S31.8870424880675 16.5771716058214 31.6605645530133 16.8033993581249z" />
    <glyph glyph-name="play-button"
      unicode="&#xF115;"
      horiz-adv-x="32" d=" M16 32C7.1776 32 0 24.8224 0 16S7.1776 0 16 0S32 7.1776 32 16S24.8224 32 16 32zM24.3002666666667 15.5594666666667L12.5669333333333 7.5594666666667C12.4768 7.4981333333333 12.3717333333333 7.4666666666667 12.2666666666667 7.4666666666667C12.1813333333333 7.4666666666667 12.0954666666667 7.4869333333333 12.0176 7.5285333333333C11.8426666666667 7.6208 11.7333333333333 7.8021333333333 11.7333333333333 8V24C11.7333333333333 24.1978666666667 11.8426666666667 24.3792 12.0176 24.4714666666667C12.1925333333333 24.5642666666667 12.4037333333333 24.5514666666667 12.5674666666667 24.4405333333333L24.3008 16.4405333333333C24.4458666666667 16.3413333333333 24.5333333333333 16.1765333333333 24.5333333333333 16S24.4458666666667 15.6586666666667 24.3002666666667 15.5594666666667z" />
    <glyph glyph-name="plus"
      unicode="&#xF116;"
      horiz-adv-x="32" d=" M30.6666666666667 18.6666666666667H19.3333333333333C18.9333333333333 18.6666666666667 18.6666666666667 18.9333333333333 18.6666666666667 19.3333333333333V30.6666666666667C18.6666666666667 31.4666666666667 18.1333333333333 32 17.3333333333333 32H14.6666666666667C13.8666666666667 32 13.3333333333333 31.4666666666667 13.3333333333333 30.6666666666667V19.3333333333333C13.3333333333333 18.9333333333333 13.0666666666667 18.6666666666667 12.6666666666667 18.6666666666667H1.3333333333333C0.5333333333333 18.6666666666667 0 18.1333333333333 0 17.3333333333333V14.6666666666667C0 13.8666666666667 0.5333333333333 13.3333333333333 1.3333333333333 13.3333333333333H12.6666666666667C13.0666666666667 13.3333333333333 13.3333333333333 13.0666666666667 13.3333333333333 12.6666666666667V1.3333333333333C13.3333333333333 0.5333333333333 13.8666666666667 0 14.6666666666667 0H17.3333333333333C18.1333333333333 0 18.6666666666667 0.5333333333333 18.6666666666667 1.3333333333333V12.6666666666667C18.6666666666667 13.0666666666667 18.9333333333333 13.3333333333333 19.3333333333333 13.3333333333333H30.6666666666667C31.4666666666667 13.3333333333333 32 13.8666666666667 32 14.6666666666667V17.3333333333333C32 18.1333333333333 31.4666666666667 18.6666666666667 30.6666666666667 18.6666666666667z" />
    <glyph glyph-name="preview"
      unicode="&#xF117;"
      horiz-adv-x="31.999999999999996" d=" M16 26.9090909090909C8.7272727272727 26.9090909090909 2.4727272727273 22.4 0 16C2.4727272727273 9.6 8.7272727272727 5.0909090909091 16 5.0909090909091S29.5272727272727 9.6 32 16C29.5272727272727 22.4 23.2727272727273 26.9090909090909 16 26.9090909090909zM16 8.7272727272727C11.9272727272727 8.7272727272727 8.7272727272727 11.9272727272727 8.7272727272727 16C8.7272727272727 20.0727272727273 11.9272727272727 23.2727272727273 16 23.2727272727273C20.0727272727273 23.2727272727273 23.2727272727273 20.0727272727273 23.2727272727273 16C23.2727272727273 11.9272727272727 20.0727272727273 8.7272727272727 16 8.7272727272727zM16 20.3636363636364C13.5272727272727 20.3636363636364 11.6363636363636 18.4727272727273 11.6363636363636 16C11.6363636363636 13.5272727272727 13.5272727272727 11.6363636363636 16 11.6363636363636C18.4727272727273 11.6363636363636 20.3636363636364 13.5272727272727 20.3636363636364 16C20.3636363636364 18.4727272727273 18.4727272727273 20.3636363636364 16 20.3636363636364z" />
    <glyph glyph-name="text"
      unicode="&#xF118;"
      horiz-adv-x="32" d=" M0 4.5913043478261H32V0H0V4.5913043478261z M12.0530086956522 11.6869565217391H19.9981913043478L21.4351304347826 6.8173913043478H27.3206260869565L19.1674434782609 32H12.8837565217391L4.7488 6.8173913043478H10.6341565217391L12.0530086956522 11.6869565217391zM15.9654956521739 25.1826086956522H16.0687304347826L18.6999652173913 16.2782608695652H13.3515130434783L15.9654956521739 25.1826086956522z" />
    <glyph glyph-name="trash"
      unicode="&#xF119;"
      horiz-adv-x="32" d=" M7.5232348515324 2.1719036338444C7.5232348515324 2.1719036338444 7.9998808087129 0 10.4533142627274 0H21.5466857372726C24 0 24.4766459571805 2.1719036338444 24.4766459571805 2.1719036338444L26.6666666666667 23.4666189901518H5.3333333333333L7.5232348515324 2.1719036338444zM20.2666905049241 20.266571313637C20.2666905049241 20.8557338458559 20.7441708011144 21.3332141420462 21.3333333333333 21.3332141420462C21.9224958655522 21.3332141420462 22.4000953530297 20.8557338458559 22.4000953530297 20.266571313637L21.3333333333333 4.266571313637C21.3333333333333 3.6774087814181 20.8557338458559 3.1999284852277 20.2666905049241 3.1999284852277C19.6776471639923 3.1999284852277 19.2000476765148 3.6775279727052 19.2000476765148 4.266571313637L20.2666905049241 20.266571313637zM14.9333571715908 20.266571313637C14.9333571715908 20.8557338458559 15.4109566590682 21.3332141420462 16 21.3332141420462C16.5891625322189 21.3332141420462 17.0666428284092 20.8557338458559 17.0666428284092 20.266571313637V4.266571313637C17.0666428284092 3.6774087814181 16.5891625322189 3.1999284852277 16 3.1999284852277C15.4108374677811 3.1999284852277 14.9333571715908 3.6775279727052 14.9333571715908 4.266571313637V20.266571313637zM10.6666666666667 21.3333333333333C11.2558291988856 21.3333333333333 11.7333094950759 20.855853037143 11.7333094950759 20.2666905049241L12.8000715147723 4.2666905049241C12.8000715147723 3.6775279727052 12.3224720272948 3.2000476765148 11.7333094950759 3.2000476765148C11.1442661541441 3.2000476765148 10.6666666666667 3.6776471639923 10.6666666666667 4.2666905049241L9.6000238382574 20.266571313637C9.6000238382574 20.8557338458559 10.0776233257349 21.3333333333333 10.6666666666667 21.3333333333333zM26.0266094548489 27.7316408170563H21.3333333333333V29.8665951518944C21.3333333333333 31.4848552570807 20.809964391603 32 19.2000476765149 32L12.7999523234852 32C11.3232914673937 32 10.6666666666667 31.2847330860114 10.6666666666667 29.8665951518944V27.7315216257692H5.9733905451511C5.0301106989079 27.7315216257692 4.2666905049241 27.0155395640579 4.2666905049241 26.130782639789C4.2666905049241 25.2459065242331 5.0301106989079 24.5299244625218 5.9733905451511 24.5299244625218H26.0266094548489C26.9698893010921 24.5299244625218 27.7333094950759 25.2459065242331 27.7333094950759 26.130782639789C27.7333094950759 27.0155395640579 26.9698893010921 27.7316408170563 26.0266094548489 27.7316408170563zM19.2000476765149 27.7316408170563H12.8000715147723L12.8001907060594 29.8667143431815H19.200166867802V27.7316408170563z" />
    <glyph glyph-name="twitter"
      unicode="&#xF11A;"
      horiz-adv-x="32" d=" M16 32C7.1634375 32 0 24.8365625 0 16S7.1634375 0 16 0S32 7.1634375 32 16S24.8365625 32 16 32zM25.1950625 20.716C25.2041875 20.512625 25.208875 20.308 25.208875 20.1023125C25.208875 13.832875 20.43675 6.6034375 11.7101875 6.6034375C9.0309375 6.6034375 6.5371875 7.3889375 4.4375 8.7350625C4.808625 8.6911875 5.1863125 8.6686875 5.56925 8.6686875C7.7920625 8.6686875 9.8376875 9.4273125 11.4614375 10.6996875C9.385375 10.737875 7.6333125 12.1098125 7.0294375 13.9945C7.31925 13.9391875 7.6164375 13.9094375 7.922125 13.9094375C8.3548125 13.9094375 8.7739375 13.9674375 9.1720625 14.0758125C7.0016875 14.511875 5.36625 16.4293125 5.36625 18.7279375C5.36625 18.7479375 5.36625 18.767875 5.36675 18.787625C6.0064375 18.4323125 6.7379375 18.218875 7.515625 18.19425C6.2425 19.0449375 5.405 20.497125 5.405 22.14325C5.405 23.0126875 5.639 23.82775 6.047375 24.528375C8.3873125 21.6579375 11.88325 19.76925 15.82625 19.57125C15.745375 19.9186875 15.7034375 20.2806875 15.7034375 20.652625C15.7034375 23.272625 17.8278125 25.39675 20.44775 25.39675C21.81225 25.39675 23.045375 24.820625 23.91075 23.898625C24.9914375 24.111375 26.0068125 24.5061875 26.9236875 25.049875C26.5694375 23.9419375 25.817125 23.0121875 24.837625 22.4250625C25.7973125 22.5396875 26.711625 22.7948125 27.5625 23.1720625C26.9265 22.2205625 26.1221875 21.385 25.1950625 20.716z" />
    <glyph glyph-name="up"
      unicode="&#xF11B;"
      horiz-adv-x="31.999999999999996" d=" M31.6802571868781 10.0677993465039L16.7371380238586 25.0099077313998C16.5236392224028 25.2236311502164 16.2780201383503 25.3306613226453 16.0001684630206 25.3306613226453S15.4762484689168 25.2236311502164 15.2626373587806 25.0099077313998L0.3207535912455 10.0677993465039C0.1066932463877 9.853739001646 0 9.6081199175935 0 9.3301559335835C0 9.0523042582538 0.1070301724289 8.8063482481601 0.3207535912455 8.5927371380239L1.92362307803 6.9899799599198C2.1373464968466 6.7762565411032 2.3833025069403 6.6694509860351 2.66115418227 6.6694509860351C2.9390058575996 6.6694509860351 3.1849618676934 6.7762565411032 3.39868528651 6.9899799599198L16.0001684630206 19.5912385190697L28.6021008742529 6.989193799157C28.8157119843891 6.7754703803404 29.0617803031632 6.6693386773547 29.3391827437713 6.6693386773547C29.6174836538225 6.6693386773547 29.8634396639163 6.7761442324228 30.0770507740525 6.989193799157L31.6801448781977 8.5926248293434C31.8937559883339 8.8062359394797 31.9998876913196 9.0523042582538 31.9998876913196 9.330043624903C32 9.6081199175935 31.8938682970143 9.8540759276872 31.6802571868781 10.0677993465039z" />
    <glyph glyph-name="video"
      unicode="&#xF11C;"
      horiz-adv-x="32" d=" M31.448275862069 28.6896551724138H0.551724137931C0.2471724137931 28.6896551724138 0 28.4430344827586 0 28.1379310344828V3.8620689655172C0 3.5569655172414 0.2471724137931 3.3103448275862 0.551724137931 3.3103448275862H31.448275862069C31.7528275862069 3.3103448275862 32 3.5569655172414 32 3.8620689655172V28.1379310344828C32 28.4430344827586 31.7528275862069 28.6896551724138 31.448275862069 28.6896551724138zM5.5172413793103 4.4137931034483H1.1034482758621V9.3793103448276H5.5172413793103V4.4137931034483zM5.5172413793103 10.4827586206897H1.1034482758621V15.448275862069H5.5172413793103V10.4827586206897zM5.5172413793103 16.551724137931H1.1034482758621V21.5172413793103H5.5172413793103V16.551724137931zM5.5172413793103 22.6206896551724H1.1034482758621V27.5862068965517H5.5172413793103V22.6206896551724zM20.1583448275862 15.5343448275862L14.0893793103448 11.672275862069C13.9994482758621 11.6154482758621 13.896275862069 11.5862068965517 13.7931034482759 11.5862068965517C13.7015172413793 11.5862068965517 13.6104827586207 11.6088275862069 13.527724137931 11.6540689655172C13.3511724137931 11.7511724137931 13.2413793103448 11.9365517241379 13.2413793103448 12.1379310344828V19.8620689655172C13.2413793103448 20.0634482758621 13.3511724137931 20.2488275862069 13.527724137931 20.3459310344828C13.704275862069 20.4424827586207 13.9194482758621 20.4353103448276 14.0899310344828 20.327724137931L20.1588965517241 16.4656551724138C20.3172413793103 16.3641379310345 20.4137931034483 16.1886896551724 20.4137931034483 16S20.3172413793103 15.6358620689655 20.1583448275862 15.5343448275862zM30.8965517241379 4.4137931034483H26.4827586206897V9.3793103448276H30.8965517241379V4.4137931034483zM30.8965517241379 10.4827586206897H26.4827586206897V15.448275862069H30.8965517241379V10.4827586206897zM30.8965517241379 16.551724137931H26.4827586206897V21.5172413793103H30.8965517241379V16.551724137931zM30.8965517241379 22.6206896551724H26.4827586206897V27.5862068965517H30.8965517241379V22.6206896551724z" />
    <glyph glyph-name="youtube1"
      unicode="&#xF11D;"
      horiz-adv-x="32" d=" M8.405442455243 14.8191918158568L9.6739846547315 14.8191918158568L9.6739846547315 7.9533503836317L10.8741074168798 7.9533503836317L10.8741074168798 14.8191918158568L12.1662199488491 14.8191918158568L12.1662199488491 15.9436930946292L8.405442455243 15.9436930946292z M18.5531253196931 13.9798260869565C18.156358056266 13.9798260869565 17.7861074168798 13.7631099744246 17.4381176470588 13.3342608695652V15.9440204603581H16.3594475703325V7.9533503836317H17.4381176470588V8.530168797954C17.7992020460358 8.0846240409207 18.1691253196931 7.8711815856777 18.5531253196931 7.8711815856777C18.9823017902813 7.8711815856777 19.2710383631714 8.0970639386189 19.4150792838875 8.5403171355499C19.4874271099744 8.792716112532 19.5244194373402 9.1891560102302 19.5244194373402 9.7401125319693V12.110895140665C19.5244194373402 12.6746189258312 19.4874271099744 13.0681125319693 19.4150792838875 13.3074168797954C19.2713657289003 13.7539437340153 18.9819744245524 13.9798260869565 18.5531253196931 13.9798260869565zM18.445094629156 9.655652173913C18.445094629156 9.117462915601 18.2873043478261 8.8522966751918 17.975652173913 8.8522966751918C17.798547314578 8.8522966751918 17.618168797954 8.937084398977 17.4377902813299 9.1177902813299V12.7463120204604C17.618168797954 12.924726342711 17.798547314578 13.0091867007673 17.975652173913 13.0091867007673C18.2869769820972 13.0091867007673 18.445094629156 12.7335447570332 18.445094629156 12.1966649616368V9.655652173913z M14.3464757033248 9.357094629156C14.1071713554987 9.018925831202 13.8809616368286 8.8522966751918 13.6642455242967 8.8522966751918C13.5202046035806 8.8522966751918 13.4380358056266 8.937084398977 13.4118465473146 9.1046956521739C13.4020255754476 9.1393964194373 13.4020255754476 9.2709974424552 13.4020255754476 9.5237237851662V13.9071508951407H12.3230281329923V9.1999590792839C12.3230281329923 8.7792941176471 12.3593657289003 8.4951406649616 12.4182915601023 8.3144347826087C12.5266496163683 8.0126035805627 12.7662813299233 7.8711815856777 13.1132890025575 7.8711815856777C13.5103836317136 7.8711815856777 13.9176265984655 8.1108132992327 14.3464757033248 8.6025166240409V7.9530230179028H15.4261278772379V13.9071508951407H14.3464757033248V9.357094629156z M15.2725933503836 19.4075498721228C15.6238567774936 19.4075498721228 15.7924501278772 19.6861381074169 15.7924501278772 20.2426598465473V22.7735242966752C15.7924501278772 23.3303734015345 15.6238567774936 23.607652173913 15.2725933503836 23.607652173913C14.9210025575448 23.607652173913 14.7520818414322 23.3300460358056 14.7520818414322 22.7735242966752V20.2426598465473C14.7520818414322 19.685810741688 14.9210025575448 19.4075498721228 15.2725933503836 19.4075498721228z M16 32C7.1634168797954 32 0 24.8365831202046 0 16S7.1634168797954 0 16 0S32 7.1634168797954 32 16S24.8365831202046 32 16 32zM17.7795601023018 24.5164194373402H18.8667416879795V20.0865063938619C18.8667416879795 19.8308337595908 18.8667416879795 19.6982506393862 18.8798363171356 19.6625677749361C18.9037340153453 19.4936470588235 18.9895038363171 19.4072225063939 19.1355089514067 19.4072225063939C19.3535345268542 19.4072225063939 19.5823631713555 19.5761432225064 19.8242864450128 19.9175856777494V24.5164194373402H20.9144143222506V18.4997647058824H19.8242864450128V19.1558056265985C19.3901994884911 18.6582097186701 18.9764092071611 18.4169411764706 18.5786598465473 18.4169411764706C18.2277237851662 18.4169411764706 17.9854731457801 18.5593452685422 17.8761329923274 18.8637953964194C17.8158976982097 19.0461381074169 17.7795601023018 19.3338925831202 17.7795601023018 19.7584859335038V24.5164194373402L17.7795601023018 24.5164194373402zM13.6619539641944 22.5545166240409C13.6619539641944 23.1977902813299 13.7712941176471 23.6678874680307 14.0030690537084 23.972010230179C14.3045728900256 24.3835089514066 14.7291662404092 24.589094629156 15.2725933503836 24.589094629156C15.8186393861893 24.589094629156 16.242905370844 24.3835089514066 16.5444092071611 23.972010230179C16.7729104859335 23.6682148337596 16.8822506393862 23.1977902813299 16.8822506393862 22.5545166240409V20.4475907928389C16.8822506393862 19.8079181585678 16.7729104859335 19.3335652173913 16.5444092071611 19.032716112532C16.242905370844 18.6221994884911 15.8186393861893 18.4169411764706 15.2725933503836 18.4169411764706C14.7291662404092 18.4169411764706 14.3045728900256 18.6221994884911 14.0030690537084 19.032716112532C13.7712941176471 19.3335652173913 13.6619539641944 19.8082455242967 13.6619539641944 20.4475907928389V22.5545166240409zM10.7464347826087 26.5735856777494L11.6047877237852 23.4030485933504L12.4294219948849 26.5735856777494H13.6521329923274L12.1976470588235 21.7694936061381V18.4994373401535H10.9890127877238V21.7694936061381C10.8793452685422 22.3489309462916 10.6374219948849 23.1977902813299 10.2494936061381 24.3239283887468C9.9948030690537 25.0732685421995 9.7293094629156 25.8249002557545 9.4746189258312 26.5735856777494H10.7464347826087zM24.6133196930946 7.4276010230179C24.3946393861893 6.4785677749361 23.6184552429668 5.7780051150895 22.6838260869565 5.6735754475703C20.4698516624041 5.4264143222506 18.2303427109974 5.425104859335 15.9990179028133 5.4264143222506C13.7686751918159 5.425104859335 11.5278567774936 5.4264143222506 9.314537084399 5.6735754475703C8.3799079283887 5.7780051150895 7.6033964194373 6.4782404092072 7.3853708439898 7.4276010230179C7.0740460358056 8.7792941176471 7.0740460358056 10.2553861892583 7.0740460358056 11.6473452685422S7.0779744245524 14.5150690537084 7.3889718670077 15.8670895140665C7.6073248081841 16.8164501278772 8.3831815856777 17.5170127877238 9.317810741688 17.6211150895141C11.5314578005115 17.8682762148338 13.7719488491049 17.8695856777494 16.0029462915601 17.8682762148338C18.2332890025575 17.8695856777494 20.4737800511509 17.8682762148338 22.6874271099744 17.6211150895141C23.6220562659847 17.5166854219949 24.3985677749361 16.8164501278772 24.6175754475703 15.8670895140665C24.9279181585678 14.5150690537084 24.9259539641944 13.0393043478261 24.9259539641944 11.6473452685422S24.9246445012788 8.7792941176471 24.6133196930946 7.4276010230179z M21.9891560102302 13.9798260869565C21.4372173913044 13.9798260869565 21.0086956521739 13.7771867007673 20.6970434782609 13.3696163682864C20.4682148337596 13.0684398976982 20.3637851662404 12.602925831202 20.3637851662404 11.9668542199489V9.8812071611253C20.3637851662404 9.2484092071611 20.4806547314578 8.779621483376 20.7104654731458 8.4813913043478C21.0217902813299 8.0748030690537 21.451621483376 7.8715089514067 22.016 7.8715089514067C22.5793964194373 7.8715089514067 23.0216675191816 8.0846240409207 23.3202250639386 8.517074168798C23.4511713554987 8.7082557544757 23.5362864450128 8.9246445012788 23.5722966751918 9.163621483376C23.5824450127877 9.271652173913 23.5952122762148 9.5109565217391 23.5952122762148 9.8589462915601V10.0157544757033H22.4949360613811C22.4949360613811 9.583631713555 22.4808593350384 9.3436726342711 22.4713657289003 9.285074168798C22.409820971867 8.9966649616368 22.2546496163683 8.8526240409207 21.9891560102302 8.8526240409207C21.6185780051151 8.8526240409207 21.4372173913043 9.1276112531969 21.4372173913043 9.6782404092072V10.7343222506394H23.5952122762148V11.9675089514067C23.5952122762148 12.6035805626598 23.4875089514066 13.069094629156 23.2612992327366 13.3702710997442C22.9597953964194 13.7768593350384 22.5306189258312 13.9798260869565 21.9891560102302 13.9798260869565zM22.5168695652174 11.6319590792839H21.4378721227621V12.182915601023C21.4378721227621 12.7335447570332 21.618905370844 13.0088593350384 21.9793350383632 13.0088593350384C22.3361636828645 13.0088593350384 22.5168695652174 12.7332173913043 22.5168695652174 12.182915601023V11.6319590792839z" />
    <glyph glyph-name="youtube2"
      unicode="&#xF11E;"
      horiz-adv-x="32" d=" M13.0844808184143 12.4932583120205C15.4853810741688 13.7382301790281 17.8653299232737 14.9717442455243 20.2672122762148 16.2173708439898C17.8581278772379 17.4744552429667 15.4788337595908 18.7151713554987 13.0844808184143 19.964726342711C13.0844808184143 17.4656163682864 13.0844808184143 14.9920409207161 13.0844808184143 12.4932583120205z M16 32C7.1637442455243 32 0 24.8365831202046 0 16S7.1637442455243 0 16 0S32 7.1634168797954 32 16S24.8362557544757 32 16 32zM26.9016061381074 10.6593554987212C26.6246547314578 9.4579232736573 25.6419028132992 8.5717442455243 24.4591304347826 8.4398158567775C21.6578618925831 8.12652685422 18.8228746803069 8.1248900255754 15.9993452685422 8.12652685422C13.1758158567775 8.1248900255755 10.3401739130435 8.12652685422 7.5382506393862 8.4398158567775C6.3554782608696 8.5717442455243 5.3733810741688 9.4579232736573 5.097084398977 10.6593554987212C4.70326342711 12.3708235294118 4.70326342711 14.2384450127877 4.70326342711 16S4.7078465473146 19.629831202046 5.1016675191816 21.3406445012788C5.3779641943734 22.5420767263427 6.3600613810742 23.4285831202046 7.5428337595908 23.5608388746803C10.3447570332481 23.873800511509 13.1803989769821 23.8754373401535 16.0039283887468 23.873800511509C18.8268030690537 23.8754373401535 21.6624450127877 23.873800511509 24.4633861892583 23.5608388746803C25.6468132992327 23.4285831202046 26.6295652173913 22.5424040920716 26.9058618925831 21.3406445012788C27.2996828644501 19.6295038363171 27.2964092071611 17.7615549872123 27.2964092071611 16S27.2954271099744 12.3704961636829 26.9016061381074 10.6593554987212z" />
  </font>
</defs>
</svg>
